<mxfile host="app.diagrams.net" agent="Mozilla/5.0 (Windows NT 10.0; Win64; x64) AppleWebKit/537.36 (KHTML, like Gecko) Chrome/131.0.0.0 Safari/537.36" version="24.8.6">
  <diagram name="Page-1" id="Qxaexs4sUwDNYW5sFrN8">
    <mxGraphModel dx="1185" dy="627" grid="1" gridSize="10" guides="1" tooltips="1" connect="1" arrows="1" fold="1" page="1" pageScale="1" pageWidth="850" pageHeight="1100" math="0" shadow="0">
      <root>
        <mxCell id="0" />
        <mxCell id="1" parent="0" />
        <mxCell id="h70dZAe4g8dP535I-NNz-4" style="edgeStyle=orthogonalEdgeStyle;rounded=0;orthogonalLoop=1;jettySize=auto;html=1;entryX=0;entryY=0.5;entryDx=0;entryDy=0;" parent="1" source="h70dZAe4g8dP535I-NNz-1" target="h70dZAe4g8dP535I-NNz-3" edge="1">
          <mxGeometry relative="1" as="geometry" />
        </mxCell>
        <mxCell id="h70dZAe4g8dP535I-NNz-14" value="Redirect to&lt;div&gt;external site&lt;/div&gt;" style="edgeLabel;html=1;align=center;verticalAlign=middle;resizable=0;points=[];" parent="h70dZAe4g8dP535I-NNz-4" vertex="1" connectable="0">
          <mxGeometry x="-0.2801" y="2" relative="1" as="geometry">
            <mxPoint x="7" y="2" as="offset" />
          </mxGeometry>
        </mxCell>
        <mxCell id="h70dZAe4g8dP535I-NNz-10" style="edgeStyle=orthogonalEdgeStyle;rounded=0;orthogonalLoop=1;jettySize=auto;html=1;entryX=0;entryY=0.5;entryDx=0;entryDy=0;exitX=0.5;exitY=0;exitDx=0;exitDy=0;" parent="1" source="h70dZAe4g8dP535I-NNz-1" target="h70dZAe4g8dP535I-NNz-5" edge="1">
          <mxGeometry relative="1" as="geometry">
            <Array as="points">
              <mxPoint x="80" y="115" />
            </Array>
            <mxPoint x="60" y="260" as="sourcePoint" />
            <mxPoint x="197.5" y="120" as="targetPoint" />
          </mxGeometry>
        </mxCell>
        <mxCell id="h70dZAe4g8dP535I-NNz-13" value="UID generated" style="edgeLabel;html=1;align=center;verticalAlign=middle;resizable=0;points=[];" parent="h70dZAe4g8dP535I-NNz-10" vertex="1" connectable="0">
          <mxGeometry x="0.4151" y="-2" relative="1" as="geometry">
            <mxPoint x="4" y="-2" as="offset" />
          </mxGeometry>
        </mxCell>
        <mxCell id="h70dZAe4g8dP535I-NNz-1" value="&lt;font style=&quot;font-size: 16px;&quot;&gt;Qualtrics&lt;/font&gt;" style="rounded=1;whiteSpace=wrap;html=1;" parent="1" vertex="1">
          <mxGeometry x="20" y="270" width="120" height="60" as="geometry" />
        </mxCell>
        <mxCell id="h70dZAe4g8dP535I-NNz-6" value="" style="edgeStyle=orthogonalEdgeStyle;rounded=0;orthogonalLoop=1;jettySize=auto;html=1;" parent="1" source="h70dZAe4g8dP535I-NNz-3" target="h70dZAe4g8dP535I-NNz-5" edge="1">
          <mxGeometry relative="1" as="geometry" />
        </mxCell>
        <mxCell id="h70dZAe4g8dP535I-NNz-9" value="" style="edgeStyle=orthogonalEdgeStyle;rounded=0;orthogonalLoop=1;jettySize=auto;html=1;fillColor=#d5e8d4;strokeColor=#82b366;exitX=1;exitY=0.75;exitDx=0;exitDy=0;" parent="1" source="h70dZAe4g8dP535I-NNz-3" target="h70dZAe4g8dP535I-NNz-8" edge="1">
          <mxGeometry relative="1" as="geometry" />
        </mxCell>
        <mxCell id="h70dZAe4g8dP535I-NNz-17" style="edgeStyle=orthogonalEdgeStyle;rounded=0;orthogonalLoop=1;jettySize=auto;html=1;fillColor=#f8cecc;strokeColor=#b85450;exitX=1;exitY=0.25;exitDx=0;exitDy=0;" parent="1" source="h70dZAe4g8dP535I-NNz-3" edge="1">
          <mxGeometry relative="1" as="geometry">
            <mxPoint x="400" y="240" as="targetPoint" />
          </mxGeometry>
        </mxCell>
        <mxCell id="h70dZAe4g8dP535I-NNz-3" value="Security&lt;div&gt;Screen&lt;/div&gt;" style="shape=parallelogram;perimeter=parallelogramPerimeter;whiteSpace=wrap;html=1;fixedSize=1;" parent="1" vertex="1">
          <mxGeometry x="250" y="240" width="80" height="120" as="geometry" />
        </mxCell>
        <mxCell id="h70dZAe4g8dP535I-NNz-5" value="1. Checks for UID duplicity&lt;div&gt;2. Checks for UID validity&lt;/div&gt;" style="whiteSpace=wrap;html=1;" parent="1" vertex="1">
          <mxGeometry x="217.5" y="80" width="145" height="70" as="geometry" />
        </mxCell>
        <mxCell id="h70dZAe4g8dP535I-NNz-16" value="" style="edgeStyle=orthogonalEdgeStyle;rounded=0;orthogonalLoop=1;jettySize=auto;html=1;" parent="1" source="h70dZAe4g8dP535I-NNz-8" target="h70dZAe4g8dP535I-NNz-15" edge="1">
          <mxGeometry relative="1" as="geometry" />
        </mxCell>
        <mxCell id="h70dZAe4g8dP535I-NNz-8" value="User UID, Unix time saved as &quot;survey data&quot;" style="rounded=1;whiteSpace=wrap;html=1;" parent="1" vertex="1">
          <mxGeometry x="400" y="330" width="120" height="60" as="geometry" />
        </mxCell>
        <mxCell id="h70dZAe4g8dP535I-NNz-15" value="Timeout countdown begins" style="whiteSpace=wrap;html=1;rounded=1;" parent="1" vertex="1">
          <mxGeometry x="550" y="330" width="120" height="60" as="geometry" />
        </mxCell>
        <mxCell id="h70dZAe4g8dP535I-NNz-18" value="If any criteria fail, user access is blocked" style="rounded=1;whiteSpace=wrap;html=1;" parent="1" vertex="1">
          <mxGeometry x="400" y="210" width="120" height="60" as="geometry" />
        </mxCell>
      </root>
    </mxGraphModel>
  </diagram>
</mxfile>
